<?xml version="1.0" encoding="UTF-8"?>
<svg width="44px" height="53px" viewBox="0 0 44 53" version="1.1" xmlns="http://www.w3.org/2000/svg" xmlns:xlink="http://www.w3.org/1999/xlink">
    <!-- Generator: Sketch 61 (89581) - https://sketch.com -->
    <title>noun_Arrow_1808423</title>
    <desc>Created with Sketch.</desc>
    <g id="Page-1" stroke="none" stroke-width="1" fill="none" fill-rule="evenodd">
        <g id="noun_Arrow_1808423" transform="translate(-1.000000, 0.000000)" fill="#F2F2F2" fill-rule="nonzero">
            <g id="Group">
                <path d="M25.069342,51.5495 L44.069382,33.5496 C45.083062,32.5393 45.431972,30.3724 44.309852,29.1908 C43.187742,28.0091 41.058292,28.0165 39.944382,29.2058 L26.006882,42.3932 L26.006882,3.3621 C26.006882,1.7053 24.663642,0.3621 23.006842,0.3621 C21.349942,0.3621 20.006842,1.7053 20.006842,3.3621 L20.006842,42.3932 L6.069342,29.2058 C4.955442,28.0164 2.745742,27.9377 1.703942,29.1908 C0.741142,30.3487 0.699142,32.4986 1.944342,33.5496 L20.944342,51.5495 C21.711442,52.3144 23.729842,52.9114 25.069342,51.5495 Z" id="Path"></path>
            </g>
        </g>
    </g>
</svg>