<?xml version="1.0" encoding="UTF-8"?>
<svg width="146px" height="55px" viewBox="0 0 146 55" version="1.1" xmlns="http://www.w3.org/2000/svg" xmlns:xlink="http://www.w3.org/1999/xlink">
    <!-- Generator: Sketch 61 (89581) - https://sketch.com -->
    <title>mumble_logo</title>
    <desc>Created with Sketch.</desc>
    <g id="Page-1" stroke="none" stroke-width="1" fill="none" fill-rule="evenodd">
        <g id="Main" transform="translate(-647.000000, -40.000000)" fill="#F2F2F2" fill-rule="nonzero">
            <g id="mumble_logo" transform="translate(647.000000, 40.000000)">
                <path d="M56.9570391,17.6135037 L74.9410487,5.20716678 L90.3575589,18.2542066 C90.8756642,18.6852248 91.6355518,18.6619266 92.1191165,18.1726626 C92.6257084,17.6601003 92.6257084,16.821362 92.1191165,16.3087997 L76.5989855,0.664001132 C75.896665,-0.034947428 74.7913738,-0.186386283 73.9278649,0.384421708 L73.824244,0.454316565 L67.8257364,4.40337595 L67.8948169,3.18021595 C67.9293572,2.51621482 67.4457925,1.92210854 66.7895257,1.84056454 L66.5477434,1.80561711 L61.424258,1.17656341 C61.3551771,1.16491427 61.2630697,1.16491427 61.1939887,1.16491427 C60.226859,1.17656341 59.4439445,1.98035425 59.4554579,2.97053138 L59.4554579,3.16856681 L59.5360519,9.85517471 L54.1822976,13.3848649 C54.1707842,13.3965141 54.1477574,13.4081632 54.1362439,13.4198124 C52.9964121,14.2119541 52.6970626,15.7845883 53.4799771,16.9495026 C54.2628916,18.1027677 55.8172076,18.4056454 56.9570391,17.6135037 Z M63.3700309,4.92758734 L65.2812638,4.69460449 L65.3503444,6.02260675 L63.3354906,7.35060904 L63.3700309,4.92758734 Z" id="Shape"></path>
                <path d="M140.867066,31.4293869 C140.867066,29.3208921 139.243669,28.0511356 136.514981,28.0511356 C133.613592,28.0511356 130.205611,29.9266476 128.397999,32.5127572 C125.404502,34.702796 122.675814,36.2754303 120.073774,37.2772566 C120.971823,34.947428 122.480085,31.7788612 123.216946,30.4275607 C127.062438,25.3718328 132.427707,16.3087997 132.427707,13.1285838 C132.427707,11.9520204 131.759926,10.2395964 130.539501,10.2395964 C128.156216,10.2395964 122.480085,19.7103494 120.937283,22.5876876 C119.65929,24.987411 118.404324,28.7500841 117.206925,31.6274224 C115.3878,32.827284 113.798944,33.3864429 112.221601,33.3864429 C112.025872,33.3864429 111.841657,33.3864429 111.691982,33.3747938 C111.795604,32.9204772 111.841657,32.5477046 111.841657,32.2215287 C111.841657,30.2528235 110.736366,28.2608201 108.260974,28.2608201 C106.269147,28.2608201 104.87602,29.9848932 104.87602,31.5342292 C104.87602,33.1418109 105.57834,34.4814623 106.913901,35.4250429 C106.084932,36.8112909 105.002668,37.5917834 103.90889,37.5917834 C103.505919,37.5917834 102.27398,37.5917834 102.27398,35.5881309 C102.27398,34.5047606 102.57333,33.2117058 103.149002,31.8254578 C106.729685,26.8745722 113.741376,16.3087997 113.741376,13.1402329 C113.741376,11.9636695 113.073597,10.2512455 111.853171,10.2512455 C109.941938,10.2512455 105.612881,14.8526569 101.375931,22.7973722 C98.8199447,27.5502224 98.2672991,30.3576658 97.6340595,32.7107926 C94.8708315,34.702796 92.4990603,36.089044 90.415126,36.9161331 C90.6684217,36.1822371 91.0023119,35.4483412 91.336202,34.7260943 C91.9924688,33.2816006 92.6257084,31.9070018 92.6257084,30.5673504 C92.6257084,29.4024361 91.4283098,28.2142236 90.2539376,28.2142236 C88.3887588,28.2142236 84.5432664,31.3594921 81.7224709,34.0038475 C82.2405762,33.0020212 82.7241412,31.8837035 82.7241412,30.5557012 C82.7241412,29.390787 81.5267422,28.2025744 80.3523705,28.2025744 C78.5562721,28.2025744 74.9065084,31.1381584 72.1087397,33.7242681 C72.7534931,32.6175995 73.4097599,31.4759835 73.7436497,30.7770349 C73.9969458,30.2761218 74.0314861,30.0198407 74.0314861,29.8218053 C74.0314861,28.7733824 72.2584146,27.9579424 70.7386393,27.9579424 C69.6218347,27.9579424 68.7813527,28.3540133 68.378382,29.0762601 C67.8602766,29.9499458 67.3536847,30.8352807 66.8816335,31.6856681 C64.4753221,33.4912852 61.4012312,35.6580257 58.3616802,36.8695366 C59.098541,34.9590772 59.9965901,33.0369686 60.8140449,31.3128955 C61.0328008,30.8585789 61.2400428,30.4159115 61.4357714,29.9848932 L61.4472849,29.961595 L61.4587983,29.9382967 C61.5163654,29.7752087 61.5739326,29.5888224 61.5739326,29.3791378 C61.5739326,28.4006099 60.4225876,27.8647493 58.3386533,27.8647493 C57.3600098,27.8647493 56.5770953,28.2957676 56.1971514,29.064611 C54.780997,31.9652475 51.4651233,35.762868 48.2298437,37.4286954 C48.828543,36.2055354 49.5538904,34.7610417 50.2101572,33.4446886 C50.8088565,32.2564761 51.3154484,31.2313515 51.580258,30.6838418 C51.7990135,30.2411744 51.8105269,30.0780864 51.8105269,29.8684018 C51.8105269,28.7733824 50.0719957,27.9579424 48.5176801,27.9579424 C47.4008755,27.9579424 46.5603934,28.3540133 46.1574228,29.0762601 C45.5817503,30.043139 45.0406181,30.9750704 44.5570531,31.8720544 C42.4846322,33.4097412 38.8233546,36.1239915 35.3232658,37.5335377 C35.7953173,36.4385183 36.4400705,35.0406212 37.1654179,33.479636 C40.1243748,27.0376602 44.1771092,18.20761 44.1771092,14.2818489 C44.1771092,12.2083015 42.4155512,10.7638078 40.8382084,10.7638078 C38.8694087,10.7638078 34.1834342,16.0991152 29.6586482,22.3081082 C31.4547465,18.0328729 31.4892868,16.902906 31.4892868,14.3167964 C31.4892868,12.3830387 30.4761032,10.9152467 28.3921687,10.9967907 C24.4775956,11.1365804 20.2291324,15.2370786 14.1270037,23.9389882 C11.5134504,27.5618716 9.71735213,29.3208921 9.71735213,29.3208921 C11.1219931,27.3754853 12.1006364,25.5698682 12.77993,23.9156899 L12.77993,23.927339 C12.77993,23.927339 16.4527206,16.0525186 14.0464095,11.9520204 C12.6647954,9.58724441 10.3621054,9.92506954 9.32589484,11.0317381 C7.4261755,13.0353907 9.71735213,15.5516055 7.81763283,24.0088831 C6.79293572,28.2724693 3.44252167,33.15346 0.299349711,38.0693983 C0.161188306,38.2790829 0.0921076031,38.5470131 0.0921076031,38.8265924 C0.0921076031,40.2011916 1.60036961,42.2980369 2.9013895,42.2980369 C3.35041407,42.2980369 3.69581758,42.1116507 3.97214037,41.71558 C11.962475,33.0136703 18.7899511,24.9990602 24.385488,18.6269792 C23.671654,24.5097962 19.5728657,30.613947 14.8868914,39.3391549 C14.7717569,39.4905935 14.7717569,39.6769801 14.7717569,39.7585239 C14.7717569,40.7952978 16.8326645,42.4028793 18.1567113,42.4028793 C18.7669242,42.4028793 19.1123277,42.0301069 19.3541101,41.6922817 C25.8361827,31.8953527 32.2376611,23.6943562 37.959846,17.8348374 C36.7394202,21.5159665 34.6209453,25.7562544 32.721226,29.5422258 C30.5566974,33.8640578 28.6915184,37.6034325 28.6915184,39.4672953 C28.6915184,41.0981754 29.9810248,42.1582472 31.9843652,42.1582472 C34.1949477,42.1582472 38.6851935,39.5488394 41.8053385,37.5451869 C42.6688474,36.904484 43.7395979,36.0191492 45.0406181,34.8309366 C45.0406181,34.8309366 44.5685665,36.5550097 41.7592848,38.7683469 C41.747771,38.86154 41.747771,38.9430838 41.747771,39.024628 C41.747771,40.4458233 41.9895537,41.9602121 44.8909432,41.9602121 C47.1590927,41.9602121 49.7726462,40.6322095 52.5358743,38.1159948 C52.2710647,38.8382418 52.1329036,39.4556463 52.1329036,39.9565595 C52.1329036,41.1098244 52.8006834,41.7738255 53.9750556,41.7738255 C56.2316917,41.7738255 59.5590788,40.3642795 64.1299189,37.475292 C65.0509949,36.8112909 66.2714204,35.844412 67.7796827,34.4465149 C67.7796827,34.4465149 67.2155233,36.496764 63.703921,38.9780314 C63.623327,39.3275056 63.5887867,39.6187342 63.5887867,39.8633663 C63.5887867,40.993333 65.5345596,41.971861 66.4901763,41.971861 C67.3421713,41.971861 68.7698392,40.7137537 71.2337178,38.5004166 C72.5001974,37.3588006 73.8933246,36.1006932 75.2173713,35.0872177 C74.8604547,35.8327629 74.1351073,37.1840634 74.3193225,38.45382 C74.538078,40.0846998 75.6088289,40.6671571 76.5874721,40.6089112 C77.4279541,40.5623147 78.5908124,40.5157181 81.261933,38.2441354 C82.4938719,37.1957126 83.8639727,36.0307983 85.1304523,35.0755686 C84.5547798,36.4268692 83.8294324,38.1159948 83.8294324,39.2343125 C83.8294324,40.8768416 84.6353738,41.7738255 86.097582,41.7738255 C88.4002722,41.7738255 91.8312805,40.2943847 96.5517952,37.2772566 C97.219575,36.7879926 98.290326,35.8793594 99.5222652,34.2717778 C99.5222652,34.2717778 98.8890256,36.1822371 97.1735213,37.9179594 C97.5074114,39.9915067 99.2229154,41.9136155 101.894036,41.9136155 C106.407309,41.9136155 109.159023,38.45382 110.252801,36.7180977 C110.736366,36.7879926 111.254471,36.82294 111.795604,36.82294 C112.912408,36.82294 114.040726,36.6482029 115.157531,36.2870794 C115.157531,36.2987286 115.146017,36.3103777 115.146017,36.3220269 C116.101634,36.0424474 117.368113,35.5764817 118.346757,34.7959892 C118.346757,34.7959892 117.644436,36.2870794 114.639426,37.6616783 C114.305535,38.605259 114.259482,39.0013297 114.259482,39.2226635 C114.259482,40.8651926 115.065423,41.7621765 116.527632,41.7621765 C118.772754,41.7621765 122.238303,40.2943847 126.843683,37.4053972 C127.511463,36.9394314 128.397999,36.2288337 129.284535,35.2619549 C129.284535,35.2619549 128.893077,36.5899571 127.361788,38.2441354 C128.018055,40.573964 129.986855,41.7621765 133.256675,41.7621765 C135.755094,41.7621765 138.092324,41.0166313 139.761774,40.014805 C140.579229,39.5488394 140.728904,39.0479263 140.728904,38.3023811 C140.728904,37.2889057 140.107178,36.9277823 139.566046,36.9277823 C139.197615,36.9277823 138.886752,37.067572 138.414701,37.2772566 C138.103837,37.4170463 138.495295,37.2772566 137.942649,37.475292 C137.113681,37.801468 136.146551,37.9878543 135.283042,37.9878543 C134.695856,37.9878543 133.982023,37.8946611 133.463917,37.5335377 C137.01006,36.6016063 140.867066,34.5280589 140.867066,31.4293869 Z M109.492913,32.1399846 C108.468216,32.3380201 107.443519,30.8119824 108.617891,30.7653858 C109.792263,30.7187892 109.492913,32.1399846 109.492913,32.1399846 Z M133.049433,34.3766201 C133.463917,32.5477046 134.569208,31.2779481 135.801148,31.2779481 C136.181091,31.2779481 136.238659,31.5808258 136.238659,31.7672121 C136.227145,32.5127572 135.363636,33.7592155 133.049433,34.3766201 Z" id="Shape"></path>
                <path d="M145.276717,34.0271457 C145.023421,33.6893206 144.55137,33.6194258 144.21748,33.8757069 L144.205966,33.887356 C144.205966,33.887356 143.61878,34.3416726 142.974027,34.6794977 C142.65165,34.8542349 142.329274,34.9940246 142.087491,35.0872177 C141.960843,35.1338143 141.868736,35.1687617 141.799655,35.19206 C141.765115,35.2037092 141.742088,35.2037092 141.730574,35.2037092 C141.719061,35.2037092 141.707548,35.2153583 141.707548,35.2153583 L141.673007,35.2270074 C141.569386,35.273604 141.465765,35.3202006 141.373657,35.3900955 C140.774958,35.8327629 140.728904,36.496764 141.154902,37.1025194 C141.592413,37.7082748 142.340787,38.0111526 142.939487,37.5684851 C142.939487,37.5684851 142.951,37.556836 142.974027,37.5451869 C142.997054,37.5218886 143.031594,37.4985903 143.089162,37.4636428 C143.169756,37.393748 143.28489,37.3005549 143.411538,37.1840634 C143.664834,36.9510806 143.987211,36.6365537 144.275047,36.3103777 C144.862233,35.6463766 145.322771,34.9124806 145.322771,34.9124806 C145.483959,34.6445503 145.483959,34.295076 145.276717,34.0271457 Z" id="Path"></path>
                <path d="M55.264562,50.4407876 C54.9997524,50.3242962 54.1822976,49.9981203 54.0211093,49.7418393 C53.9750556,49.6602951 53.9635422,49.567102 53.9635422,49.4739089 C53.9635422,49.1710313 54.2398648,48.9729958 54.5161878,48.9729958 C54.9191585,48.9729958 55.0458065,49.2409262 55.0918602,49.5904003 L56.6807165,49.5904003 C56.6692031,49.0894872 56.5886087,48.740013 56.266232,48.332293 C55.8632613,47.8430291 55.1839676,47.610046 54.5737549,47.610046 C53.503004,47.610046 52.3746859,48.2973454 52.3746859,49.4855583 C52.3746859,50.4873846 53.1000333,50.964999 53.9059747,51.3028243 C54.0901899,51.3843684 54.2744051,51.4542632 54.4701337,51.5474564 C54.8040238,51.6988953 55.1379139,51.8270357 55.1379139,52.2464051 C55.1379139,52.5842299 54.8615913,52.8521603 54.5277012,52.8521603 C54.0556496,52.8521603 53.8714344,52.3978437 53.8714344,51.9901236 L52.2710647,51.9901236 L52.2710647,52.1998085 C52.2710647,53.551109 53.2727351,54.21511 54.5392146,54.21511 C55.7826673,54.21511 56.7267702,53.5977055 56.7267702,52.2697033 C56.7382836,51.267877 56.1050436,50.8252094 55.264562,50.4407876 Z" id="Path"></path>
                <path d="M63.9341899,47.610046 C62.8634394,47.610046 61.9193361,48.0527136 61.2745831,48.9147503 C61.1133947,49.1244348 60.9637198,49.3807158 60.8716124,49.6253479 C60.6989106,50.0680152 60.6298297,50.5106828 60.6298297,50.9766484 C60.6298297,52.8055637 62.1611188,54.1918118 63.9341899,54.1918118 C65.7763423,54.1918118 67.2615773,52.7706165 67.2615773,50.8951042 C67.2500639,49.0428906 65.7648289,47.610046 63.9341899,47.610046 Z M63.9572171,52.7822654 C62.9094931,52.7822654 62.2301994,51.9085798 62.2301994,50.8951042 C62.2301994,49.9049272 62.9210065,49.0428906 63.9457037,49.0428906 C64.9704006,49.0428906 65.6496942,49.9398745 65.6496942,50.9184025 C65.6496942,51.8852816 64.9704006,52.7822654 63.9572171,52.7822654 Z" id="Shape"></path>
                <path d="M74.7107798,51.5707546 C74.7107798,52.1765102 74.6647257,52.7822654 73.9163514,52.7822654 C73.1910041,52.7822654 73.0988967,52.1415626 73.0988967,51.5707546 L73.0988967,47.7381867 L71.498527,47.7381867 L71.498527,51.5707546 C71.498527,52.3745454 71.5560941,52.9220551 72.1317669,53.5278107 C72.5923048,54.0170745 73.2831119,54.2034607 73.9393783,54.2034607 C74.6071585,54.2034607 75.2173713,54.0054255 75.7009363,53.5161613 C76.2420685,52.9686516 76.3341763,52.3279488 76.3341763,51.5707546 L76.3341763,47.7381867 L74.7338066,47.7381867 L74.7338066,51.5707546 L74.7107798,51.5707546 Z" id="Path"></path>
                <polygon id="Path" points="84.6584007 51.7105443 84.6353738 51.7221936 82.2175493 47.7381867 80.8359351 47.7381867 80.8359351 54.0869693 82.3672243 54.0869693 82.3211705 50.2311031 82.3441974 50.2194542 84.738995 54.0869693 86.1206088 54.0869693 86.1206088 47.7381867 84.5893201 47.7381867"></polygon>
                <path d="M92.6602487,47.7381867 L90.5763143,47.7381867 L90.5763143,54.0869693 L92.7753833,54.0869693 C94.8247774,54.0869693 96.010663,52.980301 96.010663,50.8951042 C96.010663,50.1961559 95.8379612,49.4972072 95.4349905,48.9147503 C94.7211566,47.9245729 93.8000806,47.7381867 92.6602487,47.7381867 Z M92.8674911,52.665774 L92.176684,52.665774 L92.176684,49.159382 L92.8674911,49.159382 C93.9382417,49.159382 94.3987799,49.9049272 94.3987799,50.9184025 C94.4102933,51.9435271 93.9727823,52.665774 92.8674911,52.665774 Z" id="Shape"></path>
            </g>
        </g>
    </g>
</svg>